<?xml version="1.0" encoding="utf-8" standalone="no"?>
<!DOCTYPE svg PUBLIC "-//W3C//DTD SVG 1.1//EN"
  "http://www.w3.org/Graphics/SVG/1.1/DTD/svg11.dtd">
<svg xmlns:xlink="http://www.w3.org/1999/xlink" width="360pt" height="288pt" viewBox="0 0 360 288" xmlns="http://www.w3.org/2000/svg" version="1.1">
 <metadata>
  <rdf:RDF xmlns:dc="http://purl.org/dc/elements/1.1/" xmlns:cc="http://creativecommons.org/ns#" xmlns:rdf="http://www.w3.org/1999/02/22-rdf-syntax-ns#">
   <cc:Work>
    <dc:type rdf:resource="http://purl.org/dc/dcmitype/StillImage"/>
    <dc:date>2025-02-21T01:52:39.225028</dc:date>
    <dc:format>image/svg+xml</dc:format>
    <dc:creator>
     <cc:Agent>
      <dc:title>Matplotlib v3.8.0, https://matplotlib.org/</dc:title>
     </cc:Agent>
    </dc:creator>
   </cc:Work>
  </rdf:RDF>
 </metadata>
 <defs>
  <style type="text/css">*{stroke-linejoin: round; stroke-linecap: butt}</style>
 </defs>
 <g id="figure_1">
  <g id="patch_1">
   <path d="M 0 288 
L 360 288 
L 360 0 
L 0 0 
L 0 288 
z
" style="fill: none"/>
  </g>
  <g id="axes_1">
   <g id="patch_2">
    <path d="M 270.2 168.96 
L 274.018658 162.984938 
L 275.865082 156.725777 
L 274.809557 150.686956 
L 270.982508 145.353301 
L 265.495886 140.880443 
L 259.949195 136.95317 
L 255.747043 132.90425 
L 253.531128 128.048379 
L 252.96705 122.066924 
L 252.958462 115.241823 
L 252.168544 108.403402 
L 249.600696 102.59587 
L 244.981563 98.607377 
L 238.797196 96.586608 
L 232.000339 95.935741 
L 225.552362 95.543592 
L 220.021764 94.262817 
L 215.412241 91.418009 
L 211.268933 87.113727 
L 206.976906 82.201695 
L 202.085691 77.92154 
L 196.501285 75.376565 
L 190.470317 75.077172 
L 184.392561 76.748794 
L 178.580106 79.478198 
L 173.096289 82.120876 
L 167.753302 83.782342 
L 162.257243 84.164646 
L 156.411768 83.6408 
L 150.264962 83.046249 
L 144.118959 83.298165 
L 138.396726 85.017021 
L 133.435335 88.307634 
L 129.312216 92.773699 
L 125.793532 97.733533 
L 122.432769 102.523874 
L 118.774545 106.755315 
L 114.568939 110.420507 
L 109.897747 113.830979 
L 105.155641 117.433426 
L 100.894985 121.599577 
L 97.602431 126.481101 
L 95.502785 131.980193 
L 94.471275 137.83009 
L 94.087998 143.73396 
L 93.809593 149.493038 
L 93.187373 155.068997 
L 92.045264 160.561341 
L 90.549047 166.120477 
L 89.141777 171.844196 
L 88.371601 177.709451 
L 88.678652 183.572449 
L 90.222874 189.237058 
L 92.819469 194.558513 
L 96.008176 199.530524 
L 99.231249 204.308062 
L 102.051654 209.145166 
L 104.324807 214.266978 
L 106.253104 219.731026 
L 108.298275 225.34686 
L 110.985354 230.705635 
L 114.679385 235.325343 
L 119.430355 238.861097 
L 124.95448 241.288969 
L 130.760604 242.9693 
L 136.364665 244.538616 
L 141.493657 246.654298 
L 146.18438 249.69088 
L 150.731978 253.524397 
L 155.516356 257.517925 
L 160.795634 260.740607 
L 166.573101 262.346131 
L 172.607018 261.953478 
L 178.557674 259.855491 
L 184.191217 256.944462 
L 189.524894 254.365631 
L 194.824847 253.035883 
L 200.445221 253.236347 
L 206.587529 254.46606 
L 213.113341 255.634001 
L 219.528628 255.515621 
L 225.175938 253.277004 
L 229.559112 248.834059 
L 232.641927 242.885243 
L 234.954506 236.60343 
L 237.421535 231.127721 
L 240.960924 227.086124 
L 246.025874 224.362286 
L 252.312293 222.202413 
L 258.795087 219.598528 
L 264.1113 215.758271 
L 267.140904 210.439252 
L 267.52838 204.001077 
L 265.896944 197.171277 
L 263.635438 190.660398 
L 262.33038 184.82788 
L 263.083566 179.563056 
L 266.018138 174.426614 
L 270.2 168.96 
L 270.2 168.96 
z
" clip-path="url(#p43c3feb5d5)" style="fill: none; stroke: #ff7161; stroke-width: 7; stroke-linejoin: miter"/>
   </g>
   <g id="patch_3">
    <path d="M 223.726255 235.269601 
C 226.161439 235.269601 228.497213 234.302092 230.219148 232.580157 
C 231.941083 230.858222 232.908592 228.522449 232.908592 226.087264 
C 232.908592 223.65208 231.941083 221.316307 230.219148 219.594372 
C 228.497213 217.872436 226.161439 216.904927 223.726255 216.904927 
C 221.291071 216.904927 218.955298 217.872436 217.233362 219.594372 
C 215.511427 221.316307 214.543918 223.65208 214.543918 226.087264 
C 214.543918 228.522449 215.511427 230.858222 217.233362 232.580157 
C 218.955298 234.302092 221.291071 235.269601 223.726255 235.269601 
z
" clip-path="url(#p43c3feb5d5)" style="fill: #2c75ff; stroke: #000000; stroke-linejoin: miter"/>
   </g>
   <g id="patch_4">
    <path d="M 230.072948 148.910164 
C 232.017663 148.910164 233.882989 148.13752 235.25811 146.762399 
C 236.633232 145.387278 237.405875 143.521951 237.405875 141.577236 
C 237.405875 139.632521 236.633232 137.767195 235.25811 136.392074 
C 233.882989 135.016952 232.017663 134.244309 230.072948 134.244309 
C 228.128233 134.244309 226.262906 135.016952 224.887785 136.392074 
C 223.512664 137.767195 222.74002 139.632521 222.74002 141.577236 
C 222.74002 143.521951 223.512664 145.387278 224.887785 146.762399 
C 226.262906 148.13752 228.128233 148.910164 230.072948 148.910164 
z
" clip-path="url(#p43c3feb5d5)" style="fill: #2c75ff; stroke: #000000; stroke-linejoin: miter"/>
   </g>
   <g id="patch_5">
    <path d="M 128.081992 153.47186 
C 130.653131 153.47186 133.119308 152.450336 134.937377 150.632267 
C 136.755446 148.814197 137.77697 146.34802 137.77697 143.776882 
C 137.77697 141.205744 136.755446 138.739567 134.937377 136.921498 
C 133.119308 135.103428 130.653131 134.081904 128.081992 134.081904 
C 125.510854 134.081904 123.044677 135.103428 121.226608 136.921498 
C 119.408539 138.739567 118.387015 141.205744 118.387015 143.776882 
C 118.387015 146.34802 119.408539 148.814197 121.226608 150.632267 
C 123.044677 152.450336 125.510854 153.47186 128.081992 153.47186 
z
" clip-path="url(#p43c3feb5d5)" style="fill: #2c75ff; stroke: #000000; stroke-linejoin: miter"/>
   </g>
   <g id="patch_6">
    <path d="M 197.59108 160.06415 
C 200.02546 160.06415 202.360462 159.09696 204.081828 157.375594 
C 205.803195 155.654227 206.770384 153.319226 206.770384 150.884846 
C 206.770384 148.450466 205.803195 146.115464 204.081828 144.394098 
C 202.360462 142.672731 200.02546 141.705542 197.59108 141.705542 
C 195.1567 141.705542 192.821699 142.672731 191.100332 144.394098 
C 189.378966 146.115464 188.411776 148.450466 188.411776 150.884846 
C 188.411776 153.319226 189.378966 155.654227 191.100332 157.375594 
C 192.821699 159.09696 195.1567 160.06415 197.59108 160.06415 
z
" clip-path="url(#p43c3feb5d5)" style="fill: #2c75ff; stroke: #000000; stroke-linejoin: miter"/>
   </g>
   <g id="patch_7">
    <path d="M 189.416118 116.071834 
C 191.832611 116.071834 194.150457 115.111751 195.859175 113.403032 
C 197.567894 111.694313 198.527977 109.376468 198.527977 106.959975 
C 198.527977 104.543482 197.567894 102.225636 195.859175 100.516918 
C 194.150457 98.808199 191.832611 97.848116 189.416118 97.848116 
C 186.999625 97.848116 184.68178 98.808199 182.973061 100.516918 
C 181.264342 102.225636 180.304259 104.543482 180.304259 106.959975 
C 180.304259 109.376468 181.264342 111.694313 182.973061 113.403032 
C 184.68178 115.111751 186.999625 116.071834 189.416118 116.071834 
z
" clip-path="url(#p43c3feb5d5)" style="fill: #2c75ff; stroke: #000000; stroke-linejoin: miter"/>
   </g>
   <g id="patch_8">
    <path d="M 164.41897 156.171064 
C 166.727777 156.171064 168.942333 155.253764 170.574907 153.621191 
C 172.207481 151.988617 173.12478 149.774061 173.12478 147.465253 
C 173.12478 145.156446 172.207481 142.94189 170.574907 141.309316 
C 168.942333 139.676743 166.727777 138.759443 164.41897 138.759443 
C 162.110162 138.759443 159.895606 139.676743 158.263032 141.309316 
C 156.630459 142.94189 155.71316 145.156446 155.71316 147.465253 
C 155.71316 149.774061 156.630459 151.988617 158.263032 153.621191 
C 159.895606 155.253764 162.110162 156.171064 164.41897 156.171064 
z
" clip-path="url(#p43c3feb5d5)" style="fill: #2c75ff; stroke: #000000; stroke-linejoin: miter"/>
   </g>
   <g id="patch_9">
    <path d="M 144.717718 219.970519 
C 146.876196 219.970519 148.94656 219.112946 150.472835 217.586671 
C 151.99911 216.060396 152.856683 213.990032 152.856683 211.831553 
C 152.856683 209.673074 151.99911 207.602711 150.472835 206.076436 
C 148.94656 204.550161 146.876196 203.692588 144.717718 203.692588 
C 142.559239 203.692588 140.488875 204.550161 138.9626 206.076436 
C 137.436325 207.602711 136.578752 209.673074 136.578752 211.831553 
C 136.578752 213.990032 137.436325 216.060396 138.9626 217.586671 
C 140.488875 219.112946 142.559239 219.970519 144.717718 219.970519 
z
" clip-path="url(#p43c3feb5d5)" style="fill: #2c75ff; stroke: #000000; stroke-linejoin: miter"/>
   </g>
   <g id="patch_10">
    <path d="M 123.607821 180.82507 
C 126.262216 180.82507 128.80825 179.770468 130.685191 177.893527 
C 132.562131 176.016587 133.616733 173.470552 133.616733 170.816158 
C 133.616733 168.161763 132.562131 165.615728 130.685191 163.738788 
C 128.80825 161.861848 126.262216 160.807246 123.607821 160.807246 
C 120.953427 160.807246 118.407392 161.861848 116.530452 163.738788 
C 114.653511 165.615728 113.598909 168.161763 113.598909 170.816158 
C 113.598909 173.470552 114.653511 176.016587 116.530452 177.893527 
C 118.407392 179.770468 120.953427 180.82507 123.607821 180.82507 
z
" clip-path="url(#p43c3feb5d5)" style="fill: #2c75ff; stroke: #000000; stroke-linejoin: miter"/>
   </g>
   <g id="patch_11">
    <path d="M 193.671887 226.135842 
C 195.943999 226.135842 198.123357 225.233122 199.729983 223.626496 
C 201.336609 222.01987 202.239329 219.840512 202.239329 217.5684 
C 202.239329 215.296287 201.336609 213.116929 199.729983 211.510303 
C 198.123357 209.903677 195.943999 209.000957 193.671887 209.000957 
C 191.399774 209.000957 189.220416 209.903677 187.61379 211.510303 
C 186.007164 213.116929 185.104444 215.296287 185.104444 217.5684 
C 185.104444 219.840512 186.007164 222.01987 187.61379 223.626496 
C 189.220416 225.233122 191.399774 226.135842 193.671887 226.135842 
z
" clip-path="url(#p43c3feb5d5)" style="fill: #2c75ff; stroke: #000000; stroke-linejoin: miter"/>
   </g>
   <g id="patch_12">
    <path d="M 212.370191 124.705775 
C 214.60304 124.705775 216.744737 123.818654 218.3236 122.239792 
C 219.902462 120.66093 220.789582 118.519232 220.789582 116.286384 
C 220.789582 114.053535 219.902462 111.911838 218.3236 110.332975 
C 216.744737 108.754113 214.60304 107.866993 212.370191 107.866993 
C 210.137342 107.866993 207.995645 108.754113 206.416783 110.332975 
C 204.83792 111.911838 203.9508 114.053535 203.9508 116.286384 
C 203.9508 118.519232 204.83792 120.66093 206.416783 122.239792 
C 207.995645 123.818654 210.137342 124.705775 212.370191 124.705775 
z
" clip-path="url(#p43c3feb5d5)" style="fill: #2c75ff; stroke: #000000; stroke-linejoin: miter"/>
   </g>
   <g id="patch_13">
    <path d="M 246.277859 193.988582 
C 248.934482 193.988582 251.482654 192.933094 253.36117 191.054579 
C 255.239685 189.176063 256.295173 186.627891 256.295173 183.971268 
C 256.295173 181.314646 255.239685 178.766474 253.36117 176.887958 
C 251.482654 175.009442 248.934482 173.953955 246.277859 173.953955 
C 243.621237 173.953955 241.073065 175.009442 239.194549 176.887958 
C 237.316033 178.766474 236.260546 181.314646 236.260546 183.971268 
C 236.260546 186.627891 237.316033 189.176063 239.194549 191.054579 
C 241.073065 192.933094 243.621237 193.988582 246.277859 193.988582 
z
" clip-path="url(#p43c3feb5d5)" style="fill: #2c75ff; stroke: #000000; stroke-linejoin: miter"/>
   </g>
   <g id="patch_14">
    <path d="M 224.119546 215.285951 
C 226.666141 215.285951 229.108776 214.274178 230.90949 212.473464 
C 232.710205 210.67275 233.721977 208.230115 233.721977 205.68352 
C 233.721977 203.136926 232.710205 200.69429 230.90949 198.893576 
C 229.108776 197.092862 226.666141 196.081089 224.119546 196.081089 
C 221.572952 196.081089 219.130317 197.092862 217.329602 198.893576 
C 215.528888 200.69429 214.517116 203.136926 214.517116 205.68352 
C 214.517116 208.230115 215.528888 210.67275 217.329602 212.473464 
C 219.130317 214.274178 221.572952 215.285951 224.119546 215.285951 
z
" clip-path="url(#p43c3feb5d5)" style="fill: #2c75ff; stroke: #000000; stroke-linejoin: miter"/>
   </g>
   <g id="patch_15">
    <path d="M 136.712311 196.211689 
C 138.786983 196.211689 140.776961 195.387413 142.243976 193.920399 
C 143.710991 192.453384 144.535267 190.463406 144.535267 188.388734 
C 144.535267 186.314062 143.710991 184.324084 142.243976 182.857069 
C 140.776961 181.390054 138.786983 180.565778 136.712311 180.565778 
C 134.637639 180.565778 132.647661 181.390054 131.180646 182.857069 
C 129.713632 184.324084 128.889356 186.314062 128.889356 188.388734 
C 128.889356 190.463406 129.713632 192.453384 131.180646 193.920399 
C 132.647661 195.387413 134.637639 196.211689 136.712311 196.211689 
z
" clip-path="url(#p43c3feb5d5)" style="fill: #2c75ff; stroke: #000000; stroke-linejoin: miter"/>
   </g>
   <g id="patch_16">
    <path d="M 232.307727 169.463845 
C 234.835706 169.463845 237.260485 168.459468 239.048036 166.671917 
C 240.835587 164.884366 241.839964 162.459586 241.839964 159.931607 
C 241.839964 157.403628 240.835587 154.978849 239.048036 153.191298 
C 237.260485 151.403747 234.835706 150.39937 232.307727 150.39937 
C 229.779748 150.39937 227.354968 151.403747 225.567417 153.191298 
C 223.779866 154.978849 222.775489 157.403628 222.775489 159.931607 
C 222.775489 162.459586 223.779866 164.884366 225.567417 166.671917 
C 227.354968 168.459468 229.779748 169.463845 232.307727 169.463845 
z
" clip-path="url(#p43c3feb5d5)" style="fill: #2c75ff; stroke: #000000; stroke-linejoin: miter"/>
   </g>
   <g id="patch_17">
    <path d="M 147.620891 201.102198 
C 149.755199 201.102198 151.802378 200.254228 153.311562 198.745044 
C 154.820745 197.235861 155.668715 195.188682 155.668715 193.054374 
C 155.668715 190.920066 154.820745 188.872886 153.311562 187.363703 
C 151.802378 185.854519 149.755199 185.00655 147.620891 185.00655 
C 145.486583 185.00655 143.439403 185.854519 141.93022 187.363703 
C 140.421036 188.872886 139.573067 190.920066 139.573067 193.054374 
C 139.573067 195.188682 140.421036 197.235861 141.93022 198.745044 
C 143.439403 200.254228 145.486583 201.102198 147.620891 201.102198 
z
" clip-path="url(#p43c3feb5d5)" style="fill: #2c75ff; stroke: #000000; stroke-linejoin: miter"/>
   </g>
   <g id="text_1">
    <!-- cookiecutter -->
    <g style="fill: #ff7161" transform="translate(71.76 27.933281) scale(0.25 -0.25)">
     <defs>
      <path id="Tomorrow-Bold-63" d="M 1030 0 
L 320 710 
L 320 2630 
L 1030 3341 
L 2976 3341 
L 3648 2726 
L 3648 2074 
L 2451 2074 
L 2451 2451 
L 2227 2675 
L 1741 2675 
L 1517 2451 
L 1517 1069 
L 1741 845 
L 3578 845 
L 3578 0 
L 1030 0 
z
" transform="scale(0.015625)"/>
      <path id="Tomorrow-Bold-6f" d="M 1030 0 
L 320 710 
L 320 2630 
L 1030 3341 
L 3117 3341 
L 3827 2630 
L 3827 710 
L 3117 0 
L 1030 0 
z
M 1741 666 
L 2406 666 
L 2630 896 
L 2630 2451 
L 2406 2675 
L 1741 2675 
L 1517 2451 
L 1517 896 
L 1741 666 
z
" transform="scale(0.015625)"/>
      <path id="Tomorrow-Bold-6b" d="M 416 0 
L 416 4717 
L 1613 4717 
L 1613 2362 
L 2573 3341 
L 4006 3341 
L 2630 1933 
L 4051 0 
L 2534 0 
L 1818 1107 
L 1613 890 
L 1613 0 
L 416 0 
z
" transform="scale(0.015625)"/>
      <path id="Tomorrow-Bold-69" d="M 416 3712 
L 416 4608 
L 1613 4608 
L 1613 3712 
L 416 3712 
z
M 416 0 
L 416 3347 
L 1613 3347 
L 1613 0 
L 416 0 
z
" transform="scale(0.015625)"/>
      <path id="Tomorrow-Bold-65" d="M 1030 0 
L 320 710 
L 320 2630 
L 1030 3341 
L 2912 3341 
L 3622 2630 
L 3622 1363 
L 1517 1363 
L 1517 1069 
L 1747 845 
L 3571 845 
L 3571 0 
L 1030 0 
z
M 1517 2054 
L 2534 2054 
L 2534 2451 
L 2304 2675 
L 1747 2675 
L 1517 2451 
L 1517 2054 
z
" transform="scale(0.015625)"/>
      <path id="Tomorrow-Bold-75" d="M 1062 -6 
L 352 704 
L 352 3341 
L 1549 3341 
L 1549 896 
L 1773 672 
L 2035 672 
L 2682 1222 
L 2682 3341 
L 3878 3341 
L 3878 0 
L 2682 0 
L 2682 448 
L 2125 -6 
L 1062 -6 
z
" transform="scale(0.015625)"/>
      <path id="Tomorrow-Bold-74" d="M 1107 0 
L 435 621 
L 435 2598 
L 192 2598 
L 192 3341 
L 480 3341 
L 845 4294 
L 1632 4294 
L 1632 3341 
L 2157 3341 
L 2157 2598 
L 1632 2598 
L 1632 934 
L 1805 762 
L 2291 762 
L 2291 0 
L 1107 0 
z
" transform="scale(0.015625)"/>
      <path id="Tomorrow-Bold-72" d="M 416 0 
L 416 3347 
L 1613 3347 
L 1613 2822 
L 2182 3341 
L 2835 3341 
L 2835 2272 
L 1875 2272 
L 1613 2035 
L 1613 0 
L 416 0 
z
" transform="scale(0.015625)"/>
     </defs>
     <use xlink:href="#Tomorrow-Bold-63"/>
     <use xlink:href="#Tomorrow-Bold-6f" x="60.999985"/>
     <use xlink:href="#Tomorrow-Bold-6f" x="125.799973"/>
     <use xlink:href="#Tomorrow-Bold-6b" x="190.59996"/>
     <use xlink:href="#Tomorrow-Bold-69" x="254.899948"/>
     <use xlink:href="#Tomorrow-Bold-65" x="286.599945"/>
     <use xlink:href="#Tomorrow-Bold-63" x="348.699936"/>
     <use xlink:href="#Tomorrow-Bold-75" x="409.699921"/>
     <use xlink:href="#Tomorrow-Bold-74" x="476.799911"/>
     <use xlink:href="#Tomorrow-Bold-74" x="515.099899"/>
     <use xlink:href="#Tomorrow-Bold-65" x="553.399887"/>
     <use xlink:href="#Tomorrow-Bold-72" x="615.499878"/>
    </g>
    <!--         research project -->
    <g style="fill: #ff7161" transform="translate(71.76 54.72) scale(0.25 -0.25)">
     <defs>
      <path id="Tomorrow-Bold-20" transform="scale(0.015625)"/>
      <path id="Tomorrow-Bold-73" d="M 429 0 
L 429 826 
L 2227 826 
L 2406 998 
L 2406 1133 
L 2227 1312 
L 941 1312 
L 256 1933 
L 256 2720 
L 934 3341 
L 3251 3341 
L 3251 2522 
L 1574 2522 
L 1414 2342 
L 1414 2253 
L 1587 2074 
L 2893 2074 
L 3578 1453 
L 3578 627 
L 2899 0 
L 429 0 
z
" transform="scale(0.015625)"/>
      <path id="Tomorrow-Bold-61" d="M 902 0 
L 192 710 
L 192 1421 
L 902 2131 
L 2496 2131 
L 2496 2355 
L 2266 2586 
L 589 2586 
L 589 3341 
L 2976 3341 
L 3693 2630 
L 3693 0 
L 2496 0 
L 2496 454 
L 2054 0 
L 902 0 
z
M 1606 653 
L 1952 653 
L 2496 1197 
L 2496 1536 
L 1606 1536 
L 1382 1312 
L 1382 877 
L 1606 653 
z
" transform="scale(0.015625)"/>
      <path id="Tomorrow-Bold-68" d="M 416 0 
L 416 4717 
L 1613 4717 
L 1613 2950 
L 2099 3347 
L 3251 3347 
L 3962 2630 
L 3962 0 
L 2765 0 
L 2765 2464 
L 2547 2669 
L 2202 2669 
L 1613 2170 
L 1613 0 
L 416 0 
z
" transform="scale(0.015625)"/>
      <path id="Tomorrow-Bold-70" d="M 416 -1197 
L 416 3341 
L 1613 3341 
L 1613 2950 
L 2074 3347 
L 3277 3347 
L 3987 2630 
L 3987 710 
L 3277 0 
L 2080 0 
L 1613 390 
L 1613 -1197 
L 416 -1197 
z
M 2163 685 
L 2669 685 
L 2822 845 
L 2822 2490 
L 2669 2662 
L 2157 2662 
L 1613 2182 
L 1613 1158 
L 2163 685 
z
" transform="scale(0.015625)"/>
      <path id="Tomorrow-Bold-6a" d="M 499 3712 
L 499 4608 
L 1696 4608 
L 1696 3712 
L 499 3712 
z
M -160 -1197 
L -160 -429 
L 326 -429 
L 506 -256 
L 506 3341 
L 1696 3341 
L 1702 -576 
L 1024 -1197 
L -160 -1197 
z
" transform="scale(0.015625)"/>
     </defs>
     <use xlink:href="#Tomorrow-Bold-20"/>
     <use xlink:href="#Tomorrow-Bold-20" x="24.599991"/>
     <use xlink:href="#Tomorrow-Bold-20" x="49.199982"/>
     <use xlink:href="#Tomorrow-Bold-20" x="73.799973"/>
     <use xlink:href="#Tomorrow-Bold-20" x="98.399963"/>
     <use xlink:href="#Tomorrow-Bold-20" x="122.999954"/>
     <use xlink:href="#Tomorrow-Bold-20" x="147.599945"/>
     <use xlink:href="#Tomorrow-Bold-20" x="172.199936"/>
     <use xlink:href="#Tomorrow-Bold-72" x="196.799927"/>
     <use xlink:href="#Tomorrow-Bold-65" x="242.099915"/>
     <use xlink:href="#Tomorrow-Bold-73" x="304.199905"/>
     <use xlink:href="#Tomorrow-Bold-65" x="364.099899"/>
     <use xlink:href="#Tomorrow-Bold-61" x="426.19989"/>
     <use xlink:href="#Tomorrow-Bold-72" x="489.399887"/>
     <use xlink:href="#Tomorrow-Bold-63" x="534.699875"/>
     <use xlink:href="#Tomorrow-Bold-68" x="595.69986"/>
     <use xlink:href="#Tomorrow-Bold-20" x="663.099854"/>
     <use xlink:href="#Tomorrow-Bold-70" x="687.699844"/>
     <use xlink:href="#Tomorrow-Bold-72" x="754.999832"/>
     <use xlink:href="#Tomorrow-Bold-6f" x="800.29982"/>
     <use xlink:href="#Tomorrow-Bold-6a" x="865.099808"/>
     <use xlink:href="#Tomorrow-Bold-65" x="898.199799"/>
     <use xlink:href="#Tomorrow-Bold-63" x="960.299789"/>
     <use xlink:href="#Tomorrow-Bold-74" x="1021.299774"/>
    </g>
   </g>
  </g>
 </g>
 <defs>
  <clipPath id="p43c3feb5d5">
   <rect x="71.76" y="60.72" width="216.48" height="216.48"/>
  </clipPath>
 </defs>
</svg>
